PathFileType	4	(X/Y/Z)	D:\RESEARCH\STW_dataset\Extracted\S23\S23\Mocap\trcResults\stw1.trc
DataRate	CameraRate	NumFrames	NumMarkers	Units	OrigDataRate	OrigDataStartFrame	OrigNumFrames
200.000000	200.000000	4	32	M	200.000000	532	1065
Frame#	Time	RASIS			LASIS			RPSIS			LPSIS			RTH1			RTH2			RTH3			RTH4			RFLE			LTH1			LTH2			LTH3			LTH4			LFLE			RSK1			RSK2			RSK3			RSK4			RFAL			LSK1			LSK2			LSK3			LSK4			LFAL			RFCC			RFMT1			RFMT2			RFMT5			LFCC			LFMT1			LFMT2			LFMT5			
		X1	Y1	Z1	X2	Y2	Z2	X3	Y3	Z3	X4	Y4	Z4	X5	Y5	Z5	X6	Y6	Z6	X7	Y7	Z7	X8	Y8	Z8	X9	Y9	Z9	X10	Y10	Z10	X11	Y11	Z11	X12	Y12	Z12	X13	Y13	Z13	X14	Y14	Z14	X15	Y15	Z15	X16	Y16	Z16	X17	Y17	Z17	X18	Y18	Z18	X19	Y19	Z19	X20	Y20	Z20	X21	Y21	Z21	X22	Y22	Z22	X23	Y23	Z23	X24	Y24	Z24	X25	Y25	Z25	X26	Y26	Z26	X27	Y27	Z27	X28	Y28	Z28	X29	Y29	Z29	X30	Y30	Z30	X31	Y31	Z31	X32	Y32	Z32	

533	2.66	-0.0837248764038086	0.6906307983398438	-0.05248281860351559	-0.09306024932861329	0.6805474853515625	-0.3345303649902343	-0.2760161437988281	0.6901073608398438	-0.1655734405517578	-0.2762715148925781	0.6876688232421875	-0.2184935913085937	-0.0402493896484375	0.4713622436523437	0.004444942951202421	-0.008706572532653809	0.5488394165039062	0.0120215463638306	0.08243064117431641	0.5195549316406251	0.01400349617004398	0.05512641143798828	0.43983984375	0.005452517032623318	0.2335369873046875	0.4316101989746094	0.0003306464254856374	-0.01797558212280273	0.5217059326171876	-0.4117733154296874	0.005553376197814941	0.589948486328125	-0.3776427917480468	0.102970329284668	0.5584923706054687	-0.3812359313964843	0.07648020935058594	0.4854606323242188	-0.4163708190917969	0.2236691131591797	0.4133054809570312	-0.4102290649414063	0.2364743041992187	0.3555652160644531	0.01079467391967776	0.2969775390625	0.3412723693847656	-0.003467176437377909	0.278565185546875	0.254380615234375	-0.01239854240417479	0.2198059387207031	0.2651141357421875	0.001739622473716752	0.1915849609375	0.05492224502563477	-0.04654413223266601	0.1979910583496094	0.2733733520507813	-0.3998731994628906	0.2586581115722656	0.2781545715332031	-0.3941019897460938	0.2593412475585938	0.1889879150390625	-0.3671996154785157	0.2037914886474609	0.1868656463623047	-0.3757097473144531	0.1897917327880859	0.03803046798706057	-0.3388490905761719	0.1474374237060547	0.02835278320312501	-0.1104868621826172	0.3530245361328125	0.01652073860168457	-0.073939208984375	0.3346510925292969	0.01841081619262696	-0.0324223747253418	0.2897707824707031	0.007584158897399902	0.002474333286285401	0.1434397735595703	0.03344595718383791	-0.2721168212890625	0.3357108459472656	0.02000781059265138	-0.2924664001464844	0.3223468627929688	0.01833407402038576	-0.33521826171875	0.2973567810058594	0.003202556133270287	-0.3755699768066406	
534	2.665	-0.08387308502197266	0.6906774291992188	-0.05247046661376949	-0.09312689208984375	0.6806234130859375	-0.3345060729980468	-0.2761331787109375	0.6901077880859375	-0.1656026611328125	-0.2764527587890625	0.6876744384765625	-0.2184625091552734	-0.04036294174194336	0.4713377075195312	0.00441654586791995	-0.008811264038085938	0.5488582763671875	0.011990743637085	0.08240763092041016	0.519549072265625	0.01392190170288089	0.05506044769287109	0.4398321838378906	0.005514876842498806	0.233505859375	0.4316480407714844	0.0002741444706917073	-0.01806262397766113	0.5217527465820313	-0.4117648925781249	0.005374992847442627	0.5900565795898438	-0.3776172790527343	0.1028104095458984	0.5586959838867188	-0.3811590576171874	0.0764646987915039	0.4854247436523438	-0.4162814941406249	0.2236581726074219	0.4133749389648438	-0.4101185302734375	0.2364743194580078	0.3555225219726563	0.01071953964233401	0.2969920043945313	0.3412331848144531	-0.003495059490203837	0.2785755615234375	0.2543816070556641	-0.01248586559295653	0.2197847137451172	0.2651412658691406	0.001674128890037553	0.1916317443847656	0.05492264938354492	-0.04651516723632813	0.1979955444335938	0.2734248352050782	-0.3997846984863281	0.2584620361328125	0.2781412963867188	-0.3938592834472656	0.2593353881835938	0.1890163269042969	-0.3671285095214844	0.2037483215332031	0.1869334411621094	-0.3756937866210938	0.1897565155029297	0.03807981872558596	-0.3389288024902344	0.147442626953125	0.02834166717529298	-0.1105522232055664	0.353084716796875	0.0164975872039795	-0.07395605468749999	0.3346640930175782	0.01842976570129395	-0.03243828582763672	0.2897110595703125	0.007545281887054444	0.002449519395828248	0.1433623352050781	0.03345448684692384	-0.2721373291015625	0.3357105712890625	0.02004323959350588	-0.2924529418945312	0.3223484191894531	0.01838515090942385	-0.335205810546875	0.2973741455078125	0.003219514846801781	-0.3755486450195313	
535	2.67	-0.08394864654541016	0.690618896484375	-0.05254147338867184	-0.09318560791015625	0.6806663818359375	-0.3344486083984374	-0.276212646484375	0.6900044555664062	-0.1655787048339843	-0.2765455932617187	0.6876334838867187	-0.2184450073242187	-0.04036310577392578	0.4714122314453125	0.004404575824737578	-0.008808737754821777	0.5488555908203125	0.01197569084167484	0.08227208709716798	0.519595947265625	0.01385329818725589	0.05507831954956055	0.4398185729980469	0.005360488891601589	0.2333875579833984	0.4316259460449219	0.000123663686215904	-0.01812393569946289	0.521762939453125	-0.4117482910156249	0.00516714096069336	0.59008349609375	-0.377637451171875	0.1026732177734375	0.5587049560546875	-0.3810426025390625	0.07641557312011719	0.4855684509277344	-0.4160833435058593	0.2236017150878906	0.4133781433105469	-0.4099791259765625	0.2364660339355469	0.355482177734375	0.01065948963165285	0.2969250183105469	0.3412489624023438	-0.003592029809951762	0.2784509887695313	0.2543578338623047	-0.01249259185791014	0.2197603454589844	0.2651285095214844	0.001605374455451982	0.1915470886230469	0.05488965606689453	-0.04651395797729492	0.1979702606201172	0.2733985900878906	-0.3997633056640625	0.2584945373535156	0.2781456298828125	-0.3937740783691406	0.259605224609375	0.1892306213378906	-0.3670289916992188	0.2038341674804688	0.1869512176513672	-0.3756288452148437	0.1897205200195312	0.03807798767089846	-0.3389293212890625	0.1473695983886719	0.02834520149230958	-0.1104916000366211	0.3530576782226563	0.01651471519470215	-0.07396326446533204	0.33460986328125	0.01843609809875489	-0.03246215057373047	0.2897234497070312	0.007558736801147461	0.002425604820251465	0.1434801788330078	0.0332624855041504	-0.2721192932128906	0.3357332458496094	0.0200688991546631	-0.2924738159179688	0.3224129943847656	0.01838490295410158	-0.3352178039550781	0.2973776245117187	0.003262828588485741	-0.3755454711914062	
536	2.675	-0.084064208984375	0.6905303344726562	-0.05264270401000972	-0.09347943878173828	0.680721435546875	-0.3344684448242187	-0.2762894287109375	0.6900354003906251	-0.165573501586914	-0.2765343627929688	0.687548583984375	-0.2184557342529297	-0.04025418853759766	0.4713129577636719	0.004303416728973417	-0.008811264038085938	0.5488155517578125	0.01190220928192142	0.08224930572509766	0.5195167236328125	0.01378418731689456	0.05503437423706055	0.4398162231445313	0.005377867698669461	0.2334078826904297	0.431621337890625	3.434879705312511e-05	-0.01826525115966797	0.5218541259765626	-0.4117878112792968	0.005209359645843506	0.590083740234375	-0.3775375976562499	0.08803719329833985	0.569042236328125	-0.3964105529785156	0.07641047668457031	0.4856685485839844	-0.4159905700683593	0.2235943298339844	0.4134872741699219	-0.4098480834960938	0.236457275390625	0.3554999389648438	0.01062928676605227	0.2969372253417969	0.3412528381347656	-0.003625081539154032	0.2784910583496094	0.2544236602783203	-0.01254787445068358	0.2197293853759766	0.2653229675292969	0.001564386129379289	0.1915127410888672	0.05486855697631836	-0.04647333908081055	0.1979132232666016	0.2734846496582031	-0.3997433471679688	0.2584924621582032	0.2781914672851563	-0.3937027893066407	0.2595538024902344	0.189309066772461	-0.36700927734375	0.2037505035400391	0.186974349975586	-0.3756507263183594	0.1897045440673828	0.03810265350341799	-0.3389432067871094	0.1473023071289062	0.02828443336486817	-0.1104235382080078	0.3530072631835938	0.01646405410766602	-0.07388763427734375	0.3345440368652344	0.01839551544189454	-0.03247831344604492	0.289713134765625	0.007546021461486817	0.002445724487304688	0.1434250793457031	0.03319390869140627	-0.2721778259277344	0.3356833801269531	0.02007403373718264	-0.2924729309082031	0.3222488708496094	0.01837110328674318	-0.3352177124023438	0.2973250122070313	0.003264943599700951	-0.3755097961425781	
